<mxfile host="app.diagrams.net" modified="2022-06-27T08:06:02.199Z" agent="5.0 (Windows NT 10.0; Win64; x64) AppleWebKit/537.36 (KHTML, like Gecko) Chrome/102.0.0.0 Safari/537.36" etag="unQhEiPI5QQclIY4u8un" version="18.1.1" type="github">
  <diagram id="BEl3NK7h6jZf3SdG8q6z" name="第 1 页">
    <mxGraphModel dx="1484" dy="907" grid="1" gridSize="10" guides="1" tooltips="1" connect="1" arrows="1" fold="1" page="1" pageScale="1" pageWidth="827" pageHeight="1169" math="0" shadow="0">
      <root>
        <mxCell id="0" />
        <mxCell id="1" parent="0" />
        <mxCell id="noJjr96qnrQlpcES0MQq-1" value="" style="rounded=0;whiteSpace=wrap;html=1;" vertex="1" parent="1">
          <mxGeometry x="80" y="160" width="770" height="440" as="geometry" />
        </mxCell>
        <mxCell id="noJjr96qnrQlpcES0MQq-2" value="" style="rounded=0;whiteSpace=wrap;html=1;fillColor=#CCE5FF;" vertex="1" parent="1">
          <mxGeometry x="230" y="190" width="230" height="230" as="geometry" />
        </mxCell>
        <mxCell id="noJjr96qnrQlpcES0MQq-4" value="" style="rounded=0;whiteSpace=wrap;html=1;fillColor=#CCE5FF;" vertex="1" parent="1">
          <mxGeometry x="480" y="190" width="230" height="230" as="geometry" />
        </mxCell>
        <mxCell id="noJjr96qnrQlpcES0MQq-5" value="&lt;font style=&quot;font-size: 18px;&quot;&gt;&lt;b&gt;CPU&lt;/b&gt;&lt;/font&gt;" style="text;html=1;resizable=0;autosize=1;align=center;verticalAlign=middle;points=[];fillColor=none;strokeColor=none;rounded=0;" vertex="1" parent="1">
          <mxGeometry x="105" y="190" width="50" height="20" as="geometry" />
        </mxCell>
        <mxCell id="noJjr96qnrQlpcES0MQq-6" value="&lt;font style=&quot;font-size: 14px;&quot;&gt;核心1&lt;/font&gt;" style="text;html=1;resizable=0;autosize=1;align=center;verticalAlign=middle;points=[];fillColor=none;strokeColor=none;rounded=0;fontSize=18;" vertex="1" parent="1">
          <mxGeometry x="230" y="190" width="50" height="30" as="geometry" />
        </mxCell>
        <mxCell id="noJjr96qnrQlpcES0MQq-7" value="&lt;font style=&quot;font-size: 14px;&quot;&gt;核心2&lt;/font&gt;" style="text;html=1;resizable=0;autosize=1;align=center;verticalAlign=middle;points=[];fillColor=none;strokeColor=none;rounded=0;fontSize=18;" vertex="1" parent="1">
          <mxGeometry x="480" y="190" width="50" height="30" as="geometry" />
        </mxCell>
        <mxCell id="noJjr96qnrQlpcES0MQq-8" value="一级数据缓存" style="rounded=0;whiteSpace=wrap;html=1;fontSize=14;fillColor=#CCCCFF;" vertex="1" parent="1">
          <mxGeometry x="270" y="240" width="55" height="40" as="geometry" />
        </mxCell>
        <mxCell id="noJjr96qnrQlpcES0MQq-11" value="一级指令缓存" style="rounded=0;whiteSpace=wrap;html=1;fontSize=14;fillColor=#CCCCFF;" vertex="1" parent="1">
          <mxGeometry x="370" y="240" width="55" height="40" as="geometry" />
        </mxCell>
        <mxCell id="noJjr96qnrQlpcES0MQq-12" value="一级数据缓存" style="rounded=0;whiteSpace=wrap;html=1;fontSize=14;fillColor=#CCCCFF;" vertex="1" parent="1">
          <mxGeometry x="490" y="240" width="90" height="40" as="geometry" />
        </mxCell>
        <mxCell id="noJjr96qnrQlpcES0MQq-13" value="一级指令缓存" style="rounded=0;whiteSpace=wrap;html=1;fontSize=14;fillColor=#CCCCFF;" vertex="1" parent="1">
          <mxGeometry x="600" y="240" width="100" height="40" as="geometry" />
        </mxCell>
        <mxCell id="noJjr96qnrQlpcES0MQq-14" value="二级缓存" style="rounded=0;whiteSpace=wrap;html=1;fontSize=14;fillColor=#CC99FF;" vertex="1" parent="1">
          <mxGeometry x="245" y="340" width="205" height="50" as="geometry" />
        </mxCell>
        <mxCell id="noJjr96qnrQlpcES0MQq-15" value="二级缓存" style="rounded=0;whiteSpace=wrap;html=1;fontSize=14;fillColor=#CC99FF;" vertex="1" parent="1">
          <mxGeometry x="490" y="340" width="210" height="50" as="geometry" />
        </mxCell>
        <mxCell id="noJjr96qnrQlpcES0MQq-16" value="三级缓存" style="rounded=0;whiteSpace=wrap;html=1;fontSize=14;" vertex="1" parent="1">
          <mxGeometry x="230" y="500" width="480" height="60" as="geometry" />
        </mxCell>
        <mxCell id="noJjr96qnrQlpcES0MQq-17" value="&lt;font style=&quot;font-size: 18px;&quot;&gt;内存&lt;/font&gt;" style="rounded=0;whiteSpace=wrap;html=1;fontSize=14;fillColor=#99CCFF;" vertex="1" parent="1">
          <mxGeometry x="140" y="650" width="660" height="100" as="geometry" />
        </mxCell>
        <mxCell id="noJjr96qnrQlpcES0MQq-19" value="" style="endArrow=classic;startArrow=classic;html=1;rounded=0;fontSize=18;entryX=0.5;entryY=1;entryDx=0;entryDy=0;exitX=0.5;exitY=0;exitDx=0;exitDy=0;" edge="1" parent="1" source="noJjr96qnrQlpcES0MQq-17" target="noJjr96qnrQlpcES0MQq-16">
          <mxGeometry width="50" height="50" relative="1" as="geometry">
            <mxPoint x="460" y="570" as="sourcePoint" />
            <mxPoint x="510" y="520" as="targetPoint" />
          </mxGeometry>
        </mxCell>
        <mxCell id="noJjr96qnrQlpcES0MQq-20" value="" style="endArrow=none;dashed=1;html=1;strokeWidth=1;rounded=0;fontSize=18;exitX=-0.003;exitY=0.323;exitDx=0;exitDy=0;exitPerimeter=0;" edge="1" parent="1" source="noJjr96qnrQlpcES0MQq-1">
          <mxGeometry width="50" height="50" relative="1" as="geometry">
            <mxPoint x="110" y="340" as="sourcePoint" />
            <mxPoint x="850" y="300" as="targetPoint" />
          </mxGeometry>
        </mxCell>
        <mxCell id="noJjr96qnrQlpcES0MQq-21" value="" style="endArrow=none;dashed=1;html=1;strokeWidth=1;rounded=0;fontSize=18;exitX=0;exitY=0.25;exitDx=0;exitDy=0;" edge="1" parent="1">
          <mxGeometry width="50" height="50" relative="1" as="geometry">
            <mxPoint x="80" y="453" as="sourcePoint" />
            <mxPoint x="850" y="453" as="targetPoint" />
          </mxGeometry>
        </mxCell>
        <mxCell id="noJjr96qnrQlpcES0MQq-24" value="" style="endArrow=classic;startArrow=classic;html=1;rounded=0;fontSize=18;entryX=0.5;entryY=1;entryDx=0;entryDy=0;exitX=0.5;exitY=0;exitDx=0;exitDy=0;" edge="1" parent="1">
          <mxGeometry width="50" height="50" relative="1" as="geometry">
            <mxPoint x="536" y="339" as="sourcePoint" />
            <mxPoint x="536" y="279" as="targetPoint" />
          </mxGeometry>
        </mxCell>
        <mxCell id="noJjr96qnrQlpcES0MQq-25" value="" style="endArrow=classic;startArrow=classic;html=1;rounded=0;fontSize=18;entryX=0.5;entryY=1;entryDx=0;entryDy=0;" edge="1" parent="1">
          <mxGeometry width="50" height="50" relative="1" as="geometry">
            <mxPoint x="345" y="500" as="sourcePoint" />
            <mxPoint x="344.5" y="390" as="targetPoint" />
          </mxGeometry>
        </mxCell>
        <mxCell id="noJjr96qnrQlpcES0MQq-26" value="" style="endArrow=classic;startArrow=classic;html=1;rounded=0;fontSize=18;entryX=0.5;entryY=1;entryDx=0;entryDy=0;exitX=0.766;exitY=0.023;exitDx=0;exitDy=0;exitPerimeter=0;" edge="1" parent="1" source="noJjr96qnrQlpcES0MQq-16">
          <mxGeometry width="50" height="50" relative="1" as="geometry">
            <mxPoint x="595" y="480" as="sourcePoint" />
            <mxPoint x="594.5" y="390" as="targetPoint" />
          </mxGeometry>
        </mxCell>
        <mxCell id="noJjr96qnrQlpcES0MQq-27" value="" style="endArrow=classic;startArrow=classic;html=1;rounded=0;fontSize=18;entryX=0.5;entryY=1;entryDx=0;entryDy=0;exitX=0.5;exitY=0;exitDx=0;exitDy=0;" edge="1" parent="1">
          <mxGeometry width="50" height="50" relative="1" as="geometry">
            <mxPoint x="651" y="340" as="sourcePoint" />
            <mxPoint x="651" y="280" as="targetPoint" />
          </mxGeometry>
        </mxCell>
        <mxCell id="noJjr96qnrQlpcES0MQq-28" value="" style="endArrow=classic;startArrow=classic;html=1;rounded=0;fontSize=18;entryX=0.5;entryY=1;entryDx=0;entryDy=0;exitX=0.5;exitY=0;exitDx=0;exitDy=0;" edge="1" parent="1">
          <mxGeometry width="50" height="50" relative="1" as="geometry">
            <mxPoint x="297" y="340" as="sourcePoint" />
            <mxPoint x="297" y="280" as="targetPoint" />
          </mxGeometry>
        </mxCell>
        <mxCell id="noJjr96qnrQlpcES0MQq-29" value="" style="endArrow=classic;startArrow=classic;html=1;rounded=0;fontSize=18;entryX=0.5;entryY=1;entryDx=0;entryDy=0;exitX=0.5;exitY=0;exitDx=0;exitDy=0;" edge="1" parent="1">
          <mxGeometry width="50" height="50" relative="1" as="geometry">
            <mxPoint x="397" y="340" as="sourcePoint" />
            <mxPoint x="397" y="280" as="targetPoint" />
          </mxGeometry>
        </mxCell>
        <mxCell id="noJjr96qnrQlpcES0MQq-30" value="&lt;font style=&quot;font-size: 16px;&quot;&gt;一级缓存&lt;/font&gt;" style="text;html=1;resizable=0;autosize=1;align=center;verticalAlign=middle;points=[];fillColor=none;strokeColor=none;rounded=0;fontSize=18;" vertex="1" parent="1">
          <mxGeometry x="105" y="245" width="80" height="30" as="geometry" />
        </mxCell>
        <mxCell id="noJjr96qnrQlpcES0MQq-31" value="&lt;font style=&quot;font-size: 16px;&quot;&gt;二级缓存&lt;/font&gt;" style="text;html=1;resizable=0;autosize=1;align=center;verticalAlign=middle;points=[];fillColor=none;strokeColor=none;rounded=0;fontSize=18;" vertex="1" parent="1">
          <mxGeometry x="105" y="370" width="80" height="30" as="geometry" />
        </mxCell>
        <mxCell id="noJjr96qnrQlpcES0MQq-36" value="&lt;font style=&quot;font-size: 16px;&quot;&gt;三级缓存&lt;/font&gt;" style="text;html=1;resizable=0;autosize=1;align=center;verticalAlign=middle;points=[];fillColor=none;strokeColor=none;rounded=0;fontSize=18;" vertex="1" parent="1">
          <mxGeometry x="105" y="515" width="80" height="30" as="geometry" />
        </mxCell>
        <mxCell id="noJjr96qnrQlpcES0MQq-37" value="" style="rounded=0;whiteSpace=wrap;html=1;" vertex="1" parent="1">
          <mxGeometry x="82.31" y="640" width="770" height="440" as="geometry" />
        </mxCell>
        <mxCell id="noJjr96qnrQlpcES0MQq-38" value="" style="rounded=0;whiteSpace=wrap;html=1;fillColor=#CCE5FF;" vertex="1" parent="1">
          <mxGeometry x="232.31" y="670" width="230" height="230" as="geometry" />
        </mxCell>
        <mxCell id="noJjr96qnrQlpcES0MQq-39" value="" style="rounded=0;whiteSpace=wrap;html=1;fillColor=#CCE5FF;" vertex="1" parent="1">
          <mxGeometry x="482.31" y="670" width="230" height="230" as="geometry" />
        </mxCell>
        <mxCell id="noJjr96qnrQlpcES0MQq-40" value="&lt;font style=&quot;font-size: 18px;&quot;&gt;&lt;b&gt;CPU&lt;/b&gt;&lt;/font&gt;" style="text;html=1;resizable=0;autosize=1;align=center;verticalAlign=middle;points=[];fillColor=none;strokeColor=none;rounded=0;" vertex="1" parent="1">
          <mxGeometry x="107.31" y="670" width="50" height="20" as="geometry" />
        </mxCell>
        <mxCell id="noJjr96qnrQlpcES0MQq-41" value="&lt;font style=&quot;font-size: 14px;&quot;&gt;核心1&lt;/font&gt;" style="text;html=1;resizable=0;autosize=1;align=center;verticalAlign=middle;points=[];fillColor=none;strokeColor=none;rounded=0;fontSize=18;" vertex="1" parent="1">
          <mxGeometry x="232.31" y="670" width="50" height="30" as="geometry" />
        </mxCell>
        <mxCell id="noJjr96qnrQlpcES0MQq-42" value="&lt;font style=&quot;font-size: 14px;&quot;&gt;核心2&lt;/font&gt;" style="text;html=1;resizable=0;autosize=1;align=center;verticalAlign=middle;points=[];fillColor=none;strokeColor=none;rounded=0;fontSize=18;" vertex="1" parent="1">
          <mxGeometry x="482.31" y="670" width="50" height="30" as="geometry" />
        </mxCell>
        <mxCell id="noJjr96qnrQlpcES0MQq-43" value="一级数据缓存" style="rounded=0;whiteSpace=wrap;html=1;fontSize=14;fillColor=#CCCCFF;" vertex="1" parent="1">
          <mxGeometry x="272.31" y="720" width="55" height="40" as="geometry" />
        </mxCell>
        <mxCell id="noJjr96qnrQlpcES0MQq-44" value="一级指令缓存" style="rounded=0;whiteSpace=wrap;html=1;fontSize=14;fillColor=#CCCCFF;" vertex="1" parent="1">
          <mxGeometry x="372.31" y="720" width="55" height="40" as="geometry" />
        </mxCell>
        <mxCell id="noJjr96qnrQlpcES0MQq-45" value="一级数据缓存" style="rounded=0;whiteSpace=wrap;html=1;fontSize=14;fillColor=#CCCCFF;" vertex="1" parent="1">
          <mxGeometry x="492.31" y="720" width="90" height="40" as="geometry" />
        </mxCell>
        <mxCell id="noJjr96qnrQlpcES0MQq-46" value="一级指令缓存" style="rounded=0;whiteSpace=wrap;html=1;fontSize=14;fillColor=#CCCCFF;" vertex="1" parent="1">
          <mxGeometry x="602.31" y="720" width="100" height="40" as="geometry" />
        </mxCell>
        <mxCell id="noJjr96qnrQlpcES0MQq-47" value="二级缓存" style="rounded=0;whiteSpace=wrap;html=1;fontSize=14;fillColor=#CC99FF;" vertex="1" parent="1">
          <mxGeometry x="247.31" y="820" width="205" height="50" as="geometry" />
        </mxCell>
        <mxCell id="noJjr96qnrQlpcES0MQq-48" value="二级缓存" style="rounded=0;whiteSpace=wrap;html=1;fontSize=14;fillColor=#CC99FF;" vertex="1" parent="1">
          <mxGeometry x="492.31" y="820" width="210" height="50" as="geometry" />
        </mxCell>
        <mxCell id="noJjr96qnrQlpcES0MQq-49" value="三级缓存" style="rounded=0;whiteSpace=wrap;html=1;fontSize=14;" vertex="1" parent="1">
          <mxGeometry x="232.31" y="980" width="480" height="60" as="geometry" />
        </mxCell>
        <mxCell id="noJjr96qnrQlpcES0MQq-50" value="" style="rounded=0;whiteSpace=wrap;html=1;fontSize=14;fillColor=#99CCFF;" vertex="1" parent="1">
          <mxGeometry x="142.31" y="1130" width="660" height="100" as="geometry" />
        </mxCell>
        <mxCell id="noJjr96qnrQlpcES0MQq-51" value="" style="endArrow=classic;startArrow=classic;html=1;rounded=0;fontSize=18;entryX=0.5;entryY=1;entryDx=0;entryDy=0;exitX=0.5;exitY=0;exitDx=0;exitDy=0;" edge="1" parent="1" source="noJjr96qnrQlpcES0MQq-50" target="noJjr96qnrQlpcES0MQq-49">
          <mxGeometry width="50" height="50" relative="1" as="geometry">
            <mxPoint x="462.31" y="1050" as="sourcePoint" />
            <mxPoint x="512.31" y="1000" as="targetPoint" />
          </mxGeometry>
        </mxCell>
        <mxCell id="noJjr96qnrQlpcES0MQq-52" value="" style="endArrow=none;dashed=1;html=1;strokeWidth=1;rounded=0;fontSize=18;exitX=-0.003;exitY=0.323;exitDx=0;exitDy=0;exitPerimeter=0;" edge="1" parent="1" source="noJjr96qnrQlpcES0MQq-37">
          <mxGeometry width="50" height="50" relative="1" as="geometry">
            <mxPoint x="112.31" y="820" as="sourcePoint" />
            <mxPoint x="852.31" y="780" as="targetPoint" />
          </mxGeometry>
        </mxCell>
        <mxCell id="noJjr96qnrQlpcES0MQq-53" value="" style="endArrow=none;dashed=1;html=1;strokeWidth=1;rounded=0;fontSize=18;exitX=0;exitY=0.25;exitDx=0;exitDy=0;" edge="1" parent="1">
          <mxGeometry width="50" height="50" relative="1" as="geometry">
            <mxPoint x="82.31" y="933" as="sourcePoint" />
            <mxPoint x="852.31" y="933" as="targetPoint" />
          </mxGeometry>
        </mxCell>
        <mxCell id="noJjr96qnrQlpcES0MQq-54" value="" style="endArrow=classic;startArrow=classic;html=1;rounded=0;fontSize=18;entryX=0.5;entryY=1;entryDx=0;entryDy=0;exitX=0.5;exitY=0;exitDx=0;exitDy=0;" edge="1" parent="1">
          <mxGeometry width="50" height="50" relative="1" as="geometry">
            <mxPoint x="538.31" y="819" as="sourcePoint" />
            <mxPoint x="538.31" y="759" as="targetPoint" />
          </mxGeometry>
        </mxCell>
        <mxCell id="noJjr96qnrQlpcES0MQq-55" value="" style="endArrow=classic;startArrow=classic;html=1;rounded=0;fontSize=18;entryX=0.5;entryY=1;entryDx=0;entryDy=0;" edge="1" parent="1">
          <mxGeometry width="50" height="50" relative="1" as="geometry">
            <mxPoint x="347.31" y="980" as="sourcePoint" />
            <mxPoint x="346.81" y="870" as="targetPoint" />
          </mxGeometry>
        </mxCell>
        <mxCell id="noJjr96qnrQlpcES0MQq-56" value="" style="endArrow=classic;startArrow=classic;html=1;rounded=0;fontSize=18;entryX=0.5;entryY=1;entryDx=0;entryDy=0;exitX=0.766;exitY=0.023;exitDx=0;exitDy=0;exitPerimeter=0;" edge="1" parent="1" source="noJjr96qnrQlpcES0MQq-49">
          <mxGeometry width="50" height="50" relative="1" as="geometry">
            <mxPoint x="597.31" y="960" as="sourcePoint" />
            <mxPoint x="596.81" y="870" as="targetPoint" />
          </mxGeometry>
        </mxCell>
        <mxCell id="noJjr96qnrQlpcES0MQq-57" value="" style="endArrow=classic;startArrow=classic;html=1;rounded=0;fontSize=18;entryX=0.5;entryY=1;entryDx=0;entryDy=0;exitX=0.5;exitY=0;exitDx=0;exitDy=0;" edge="1" parent="1">
          <mxGeometry width="50" height="50" relative="1" as="geometry">
            <mxPoint x="653.31" y="820" as="sourcePoint" />
            <mxPoint x="653.31" y="760" as="targetPoint" />
          </mxGeometry>
        </mxCell>
        <mxCell id="noJjr96qnrQlpcES0MQq-58" value="" style="endArrow=classic;startArrow=classic;html=1;rounded=0;fontSize=18;entryX=0.5;entryY=1;entryDx=0;entryDy=0;exitX=0.5;exitY=0;exitDx=0;exitDy=0;" edge="1" parent="1">
          <mxGeometry width="50" height="50" relative="1" as="geometry">
            <mxPoint x="299.31" y="820" as="sourcePoint" />
            <mxPoint x="299.31" y="760" as="targetPoint" />
          </mxGeometry>
        </mxCell>
        <mxCell id="noJjr96qnrQlpcES0MQq-59" value="" style="endArrow=classic;startArrow=classic;html=1;rounded=0;fontSize=18;entryX=0.5;entryY=1;entryDx=0;entryDy=0;exitX=0.5;exitY=0;exitDx=0;exitDy=0;" edge="1" parent="1">
          <mxGeometry width="50" height="50" relative="1" as="geometry">
            <mxPoint x="399.31" y="820" as="sourcePoint" />
            <mxPoint x="399.31" y="760" as="targetPoint" />
          </mxGeometry>
        </mxCell>
        <mxCell id="noJjr96qnrQlpcES0MQq-60" value="&lt;font style=&quot;font-size: 16px;&quot;&gt;一级缓存&lt;/font&gt;" style="text;html=1;resizable=0;autosize=1;align=center;verticalAlign=middle;points=[];fillColor=none;strokeColor=none;rounded=0;fontSize=18;" vertex="1" parent="1">
          <mxGeometry x="107.31" y="725" width="80" height="30" as="geometry" />
        </mxCell>
        <mxCell id="noJjr96qnrQlpcES0MQq-61" value="&lt;font style=&quot;font-size: 16px;&quot;&gt;二级缓存&lt;/font&gt;" style="text;html=1;resizable=0;autosize=1;align=center;verticalAlign=middle;points=[];fillColor=none;strokeColor=none;rounded=0;fontSize=18;" vertex="1" parent="1">
          <mxGeometry x="107.31" y="850" width="80" height="30" as="geometry" />
        </mxCell>
        <mxCell id="noJjr96qnrQlpcES0MQq-62" value="&lt;font style=&quot;font-size: 16px;&quot;&gt;三级缓存&lt;/font&gt;" style="text;html=1;resizable=0;autosize=1;align=center;verticalAlign=middle;points=[];fillColor=none;strokeColor=none;rounded=0;fontSize=18;" vertex="1" parent="1">
          <mxGeometry x="107.31" y="995" width="80" height="30" as="geometry" />
        </mxCell>
        <mxCell id="noJjr96qnrQlpcES0MQq-63" value="&lt;font style=&quot;font-size: 16px;&quot;&gt;&lt;b&gt;内存&lt;/b&gt;&lt;/font&gt;" style="text;html=1;resizable=0;autosize=1;align=center;verticalAlign=middle;points=[];fillColor=none;strokeColor=none;rounded=0;fontSize=18;" vertex="1" parent="1">
          <mxGeometry x="447.31" y="1320" width="50" height="30" as="geometry" />
        </mxCell>
        <mxCell id="noJjr96qnrQlpcES0MQq-65" value="" style="endArrow=classic;html=1;rounded=0;fontSize=16;strokeWidth=1;exitX=0.5;exitY=1;exitDx=0;exitDy=0;" edge="1" parent="1" source="noJjr96qnrQlpcES0MQq-50" target="noJjr96qnrQlpcES0MQq-63">
          <mxGeometry width="50" height="50" relative="1" as="geometry">
            <mxPoint x="450" y="1290" as="sourcePoint" />
            <mxPoint x="500" y="1240" as="targetPoint" />
            <Array as="points">
              <mxPoint x="472" y="1320" />
            </Array>
          </mxGeometry>
        </mxCell>
      </root>
    </mxGraphModel>
  </diagram>
</mxfile>
